# xmcd
#
# Track frame offsets:
#	150
#	10246
#	23455
#	34059
#	46544
#	60410
#	71459
#	82685
#	94505
#	104745
#	117952
#	133721
#	145412
#	159327
#	168370
#	180695
#	192600
#	206044
#	218565
#	231858
#	242107
#	255398
#	267315
#	281042
#	294345
#
# Disc length: 4090 seconds
# Revision: 1
# Processed by: cddbd v1.5.2PL0 Copyright (c) Steve Scherf et al.
# Submitted via: dBpowerAMP V12.0
#
DISCID=590ff819
DTITLE=Various Artist - Let Me Tell You About The Blues - Nashville
DYEAR=1952
DGENRE=Blues
TTITLE0=Eddie Jones - Certainly All
TTITLE1=Christine Kittrell - Old Man You're Slipping
TTITLE2=Little Eddie - My Baby Left Me
TTITLE3=Gay Crosse - No Better For You
TTITLE4=Julius King - If You See My Lover
TTITLE5=J D Horton - Why Don't You Let Me Be
TTITLE6=Lewis Campbell - Don't Want Nobody Hangin' Around
TTITLE7=Eddie Jones - Feelin' Sad
TTITLE8=Helen Foster - Somebody Somewhere
TTITLE9=Robert Tucker - It Sure Costs Money To Live
TTITLE10=Christine Kittrell - Sittin' Here Drinking
TTITLE11=Charles Ruckles - Pitch A Boogie Woogie
TTITLE12=Ford Nelson - Still Feelin' Sad
TTITLE13=Christine Kittrell - I Ain't Nothing But A Fool
TTITLE14=Little Maxie Bailey - Brownskin Woman Blues
TTITLE15=Kid King's Combo - Chocolate Sundae
TTITLE16=Shy Guy Douglas - Detroit Arrow
TTITLE17=The Leap Frogs - Things Gonna Change
TTITLE18=Dixie Doodlers - She Was All I Had
TTITLE19=Ford Nelson - Little Annie
TTITLE20=Kid King's Combo - Skip's Boogie
TTITLE21=Bernie Hardison - Love Me Baby
TTITLE22=Little Maxie Bailey - Drive Soldiers Drive
TTITLE23=Robert Tucker - Changeable Woman
TTITLE24=The Leap Frogs - Dirty Britches
EXTD=
EXTT0=
EXTT1=
EXTT2=
EXTT3=
EXTT4=
EXTT5=
EXTT6=
EXTT7=
EXTT8=
EXTT9=
EXTT10=
EXTT11=
EXTT12=
EXTT13=
EXTT14=
EXTT15=
EXTT16=
EXTT17=
EXTT18=
EXTT19=
EXTT20=
EXTT21=
EXTT22=
EXTT23=
EXTT24=
PLAYORDER=
